<!--?xml version="1.0" encoding="utf-8"?-->
<!-- Generator: Adobe Illustrator 18.1.1, SVG Export Plug-In . SVG Version: 6.00 Build 0)  -->

<svg version="1.1" id="_x31_0" xmlns="http://www.w3.org/2000/svg" xmlns:xlink="http://www.w3.org/1999/xlink" x="0px" y="0px" viewBox="0 0 512 512" style="width: 48px; height: 48px; opacity: 1;" xml:space="preserve">
<style type="text/css">
	.st0{fill:#374149;}
</style>
<g>
	<path class="st0" d="M287,128.348c0-0.028,0-0.055,0-0.082c0.012-4.274-2.672-7.836-6.234-7.836h-17.949h-31.578
		c-3.566,0-6.25,3.562-6.238,7.836c0,0.027,0,0.054,0,0.082c0,11.762-7.848,21.308-17.617,21.652h-63.914v24.683h225.066V150
		h-63.918C294.848,149.656,287,140.11,287,128.348z" style="fill: rgb(223, 86, 86);"></path>
	<path class="st0" d="M156.867,190.914v149.297c0,28.363,22.996,51.355,51.359,51.355h95.547c28.367,0,51.359-22.992,51.359-51.355
		V190.914H156.867z M243.262,339.414V233.512c0-5.934,4.813-10.746,10.75-10.746c5.934,0,10.746,4.813,10.746,10.746v105.902
		c0,5.937-4.812,10.75-10.746,10.75C248.074,350.164,243.262,345.351,243.262,339.414z M312.934,339.414
		c0,5.937-4.813,10.75-10.75,10.75c-5.937,0-10.75-4.813-10.75-10.75V233.512c0-5.934,4.813-10.746,10.75-10.746
		c5.938,0,10.75,4.813,10.75,10.746V339.414z M220.566,339.414c0,5.937-4.813,10.75-10.746,10.75c-5.937,0-10.75-4.813-10.75-10.75
		V233.512c0-5.934,4.813-10.746,10.75-10.746c5.934,0,10.746,4.813,10.746,10.746V339.414z" style="fill: rgb(223, 86, 86);"></path>
	<path class="st0" d="M256,0C114.617,0,0,114.61,0,256c0,141.383,114.617,256,256,256c141.386,0,256-114.617,256-256
		C512,114.61,397.386,0,256,0z M256,453.484C147.106,453.484,58.516,364.89,58.516,256c0-108.898,88.59-197.492,197.484-197.492
		S453.488,147.102,453.488,256C453.488,364.89,364.894,453.484,256,453.484z" style="fill: rgb(223, 86, 86);"></path>
</g>
</svg>
