<!--?xml version="1.0" encoding="utf-8"?-->
<!-- Generator: Adobe Illustrator 18.0.0, SVG Export Plug-In . SVG Version: 6.00 Build 0)  -->

<svg version="1.1" id="_x31_0" xmlns="http://www.w3.org/2000/svg" xmlns:xlink="http://www.w3.org/1999/xlink" x="0px" y="0px" viewBox="0 0 512 512" style="width: 32px; height: 32px; opacity: 1;" xml:space="preserve">
<style type="text/css">
	.st0{fill:#374149;}
</style>
<g>
	<path class="st0" d="M449.727,212.308v-0.226l-60.977,60.981v175.773c0,0.836-0.766,1.602-1.602,1.602H62.656
		c-0.84,0-1.675-0.766-1.675-1.602V124.268c0-0.835,0.835-1.601,1.675-1.601h178.062l35.68-35.676l25.301-25.141h-0.16l0.16-0.164
		H62.656C28.125,61.687,0,89.741,0,124.268v324.566c0,34.528,28.125,62.582,62.656,62.582h324.492
		c34.528,0,62.578-28.054,62.578-62.582V309.808l0.114-97.613L449.727,212.308z" style="fill: rgb(58, 171, 210);"></path>
	<path class="st0" d="M473.383,39.179C447.023,12.82,421.09-3.969,415.449,1.675c-0.195,0.192-0.347,0.387-0.504,0.622l-41.41,41.41
		l-5.199,5.172c0,0,0.008,0.012,0.015,0.012l-0.117,0.117c18.871,14.703,36.574,30.774,50.562,44.762
		c13.969,13.966,30.054,31.692,44.762,50.559l46.707-46.707c0.254-0.137,0.449-0.293,0.644-0.488
		C516.551,91.492,499.742,65.538,473.383,39.179z" style="fill: rgb(58, 171, 210);"></path>
	<path class="st0" d="M124.676,387.89l127.656-32.332l189.75-189.754c-11.594-15.25-26.32-32.273-44.683-50.636
		c-18.367-18.364-35.406-33.07-50.641-44.684l-189.75,189.75L124.676,387.89z M174.614,265.972
		c-0.313,7.86,2.453,15.68,8.308,21.535c10.207,10.207,26.359,10.946,38.258,2.547c1.316-0.883,2.578-1.867,3.785-2.942
		c-11.496,12.027-11.801,30.637-0.492,41.95c5.801,5.797,13.5,8.414,21.25,8.175c0.465,0.008,0.942,0.035,1.454,0.129l-3.29,3.29
		l-68.222,17.293l-21.05-21.047l17.297-68.226L174.614,265.972z" style="fill: rgb(58, 171, 210);"></path>
</g>
</svg>
